# xmcd
#
# Track frame offsets:
#	150
#	10266
#	18924
#	26468
#	44299
#	56821
#	68389
#	83946
#
# Disc length: 1221 seconds
#
# Revision: 0
# Processed by: cddbd v1.5.1PL2 Copyright (c) Steve Scherf et al.
# Submitted via: EasyCDDAExtractor 4.6.9.1
#
DISCID=5704c308
DTITLE=Johnny Cash - The Man In Black - 1963-1969 - CD 6
DYEAR=1995
DGENRE=Country
TTITLE0=Big River
TTITLE1=Folsom Prison Blues
TTITLE2=I Still Miss Someone
TTITLE3=Rock Island Line
TTITLE4=Don't Think Twice, It's Alright
TTITLE5=I Walk The Line
TTITLE6=Ballad Of Ira Hayes
TTITLE7=Keep On The Sunny Side
EXTD=
EXTT0=
EXTT1=
EXTT2=
EXTT3=
EXTT4=
EXTT5=
EXTT6=
EXTT7=
PLAYORDER=
